<svg width="717px" height="310px"
 viewBox="0.00 0.00 717.45 310.40" xmlns="http://www.w3.org/2000/svg" xmlns:xlink="http://www.w3.org/1999/xlink">
<g id="graph0" class="graph" transform="scale(1.0 1.0) rotate(0.0) translate(4.0 306.4)">
<title>G</title>
<polygon fill="white" stroke="transparent" points="-4,4 -4,-306.4 713.45,-306.4 713.45,4 -4,4"/>
<!-- 2118 -->
<g id="node1" class="node">
<title>2118</title>
<polygon fill="none" stroke="black" points="351.22,-213.6 257.69,-213.6 257.69,-177.6 351.22,-177.6 351.22,-213.6"/>
<text text-anchor="middle" x="304.45" y="-191.4" font-family="Times,serif" font-size="14.00">21173sh [0.0]</text>
</g>
<!-- 2121 -->
<g id="node2" class="node">
<title>2121</title>
<polygon fill="none" stroke="black" points="173.38,-124.8 67.53,-124.8 67.53,-88.8 173.38,-88.8 173.38,-124.8"/>
<text text-anchor="middle" x="120.45" y="-102.6" font-family="Times,serif" font-size="14.00">21174gzip [0.0]</text>
</g>
<!-- 2118&#45;&gt;2121 -->
<g id="edge1" class="edge">
<title>2118&#45;&gt;2121</title>
<path fill="none" stroke="black" d="M257.63,-191.97C183.09,-187.29 44.26,-176.42 29.45,-159.6 15.19,-143.4 33.73,-131.09 57.72,-122.54"/>
<polygon fill="black" stroke="black" points="59.08,-125.77 67.49,-119.33 56.9,-119.12 59.08,-125.77"/>
<text text-anchor="middle" x="109.95" y="-147" font-family="Times,serif" font-size="14.00">21200 0.6187562522385359</text>
</g>
<!-- 2114 -->
<g id="node3" class="node">
<title>2114</title>
<polygon fill="none" stroke="black" points="532.54,-124.8 436.37,-124.8 436.37,-88.8 532.54,-88.8 532.54,-124.8"/>
<text text-anchor="middle" x="484.45" y="-102.6" font-family="Times,serif" font-size="14.00">21172tar [0.0]</text>
</g>
<!-- 2118&#45;&gt;2114 -->
<g id="edge2" class="edge">
<title>2118&#45;&gt;2114</title>
<path fill="none" stroke="black" d="M341.41,-177.56C352.26,-172.18 364.01,-165.96 374.45,-159.6 385.26,-153.01 386.38,-148.94 397.45,-142.8 406.62,-137.71 416.69,-132.97 426.61,-128.72"/>
<polygon fill="black" stroke="black" points="428.16,-131.86 436.05,-124.8 425.48,-125.4 428.16,-131.86"/>
<text text-anchor="middle" x="474.45" y="-147" font-family="Times,serif" font-size="14.00">21179 0.371243747761464</text>
</g>
<!-- 2121&#45;&gt;2118 -->
<g id="edge5" class="edge">
<title>2121&#45;&gt;2118</title>
<path fill="none" stroke="black" d="M159.25,-124.95C169.69,-130.17 180.77,-136.26 190.45,-142.8 199.79,-149.11 199.78,-153.82 209.45,-159.6 221.35,-166.71 234.93,-172.76 248.04,-177.73"/>
<polygon fill="black" stroke="black" points="246.86,-181.03 257.46,-181.16 249.26,-174.45 246.86,-181.03"/>
<text text-anchor="middle" x="289.95" y="-147" font-family="Times,serif" font-size="14.00">21174 0.9679287776355111</text>
</g>
<!-- 2116 -->
<g id="node5" class="node">
<title>2116</title>
<ellipse fill="none" stroke="black" cx="120.45" cy="-18" rx="120.41" ry="18"/>
<text text-anchor="middle" x="120.45" y="-13.8" font-family="Times,serif" font-size="14.00">/tmp/stolen_data.tar.gz [0.0]</text>
</g>
<!-- 2121&#45;&gt;2116 -->
<g id="edge6" class="edge">
<title>2121&#45;&gt;2116</title>
<path fill="none" stroke="black" d="M120.45,-88.65C120.45,-76.52 120.45,-60.02 120.45,-46.12"/>
<polygon fill="black" stroke="black" points="123.95,-46.11 120.45,-36.11 116.95,-46.11 123.95,-46.11"/>
<text text-anchor="middle" x="207.95" y="-58.2" font-family="Times,serif" font-size="14.00">20833 0.022071222364488892</text>
</g>
<!-- 2114&#45;&gt;2118 -->
<g id="edge3" class="edge">
<title>2114&#45;&gt;2118</title>
<path fill="none" stroke="black" d="M530.88,-124.85C549.02,-134.06 563.02,-146.28 551.45,-159.6 527.36,-187.34 426.7,-193.69 361.55,-194.81"/>
<polygon fill="black" stroke="black" points="361.37,-191.31 351.42,-194.95 361.47,-198.31 361.37,-191.31"/>
<text text-anchor="middle" x="632.45" y="-147" font-family="Times,serif" font-size="14.00">21230 0.506647588451347</text>
</g>
<!-- 2117 -->
<g id="node4" class="node">
<title>2117</title>
<ellipse fill="none" stroke="black" cx="304.45" cy="-284.4" rx="58.49" ry="18"/>
<text text-anchor="middle" x="304.45" y="-280.2" font-family="Times,serif" font-size="14.00">/bin/sh [0.0]</text>
</g>
<!-- 2117&#45;&gt;2118 -->
<g id="edge4" class="edge">
<title>2117&#45;&gt;2118</title>
<path fill="none" stroke="black" d="M304.45,-266.25C304.45,-254.12 304.45,-237.62 304.45,-223.72"/>
<polygon fill="black" stroke="black" points="307.95,-223.71 304.45,-213.71 300.95,-223.71 307.95,-223.71"/>
<text text-anchor="middle" x="332.45" y="-235.8" font-family="Times,serif" font-size="14.00">9056 0.99</text>
</g>
</g>
</svg>
