<svg width="978px" height="488px"
 viewBox="0.00 0.00 978.27 488.00" xmlns="http://www.w3.org/2000/svg" xmlns:xlink="http://www.w3.org/1999/xlink">
<g id="graph0" class="graph" transform="scale(1.0 1.0) rotate(0.0) translate(4.0 484.0)">
<title>G</title>
<polygon fill="white" stroke="transparent" points="-4,4 -4,-484 974.27,-484 974.27,4 -4,4"/>
<!-- 2060 -->
<g id="node1" class="node">
<title>2060</title>
<polygon fill="none" stroke="black" points="644.32,-480 132.02,-480 0.23,-444 512.53,-444 644.32,-480"/>
<text text-anchor="middle" x="322.27" y="-457.8" font-family="Times,serif" font-size="14.00">192.168.122.129:35082&#45;&gt;192.168.122.128:8000 [0.0]</text>
</g>
<!-- 2053 -->
<g id="node2" class="node">
<title>2053</title>
<polygon fill="none" stroke="black" points="481.31,-391.2 373.24,-391.2 373.24,-355.2 481.31,-355.2 481.31,-391.2"/>
<text text-anchor="middle" x="427.27" y="-369" font-family="Times,serif" font-size="14.00">21163wget [0.0]</text>
</g>
<!-- 2060&#45;&gt;2053 -->
<g id="edge1" class="edge">
<title>2060&#45;&gt;2053</title>
<path fill="none" stroke="black" d="M265.75,-443.94C246.52,-435.21 232.52,-423.42 244.27,-409.2 259.3,-391.03 316.57,-382.2 363.09,-377.97"/>
<polygon fill="black" stroke="black" points="363.47,-381.45 373.14,-377.11 362.88,-374.48 363.47,-381.45"/>
<text text-anchor="middle" x="324.77" y="-413.4" font-family="Times,serif" font-size="14.00">16362 0.3882876596551653</text>
</g>
<!-- 2060&#45;&gt;2053 -->
<g id="edge7" class="edge">
<title>2060&#45;&gt;2053</title>
<path fill="none" stroke="black" d="M379.49,-443.82C388.91,-439.15 397.97,-433.29 405.27,-426 412.11,-419.18 416.95,-409.91 420.31,-401.09"/>
<polygon fill="black" stroke="black" points="423.67,-402.08 423.51,-391.49 417.03,-399.87 423.67,-402.08"/>
<text text-anchor="middle" x="497.77" y="-413.4" font-family="Times,serif" font-size="14.00">18769 0.6017123403448347</text>
</g>
<!-- 2104 -->
<g id="node3" class="node">
<title>2104</title>
<polygon fill="none" stroke="black" points="880.62,-391.2 709.93,-391.2 709.93,-355.2 880.62,-355.2 880.62,-391.2"/>
<text text-anchor="middle" x="795.27" y="-369" font-family="Times,serif" font-size="14.00">21169.system_service [0.0]</text>
</g>
<!-- 2114 -->
<g id="node4" class="node">
<title>2114</title>
<polygon fill="none" stroke="black" points="843.36,-302.4 747.19,-302.4 747.19,-266.4 843.36,-266.4 843.36,-302.4"/>
<text text-anchor="middle" x="795.27" y="-280.2" font-family="Times,serif" font-size="14.00">21172tar [0.0]</text>
</g>
<!-- 2104&#45;&gt;2114 -->
<g id="edge2" class="edge">
<title>2104&#45;&gt;2114</title>
<path fill="none" stroke="black" d="M795.27,-355.05C795.27,-342.92 795.27,-326.42 795.27,-312.52"/>
<polygon fill="black" stroke="black" points="798.77,-312.51 795.27,-302.51 791.77,-312.51 798.77,-312.51"/>
<text text-anchor="middle" x="879.27" y="-324.6" font-family="Times,serif" font-size="14.00">21235 0.17267708212065874</text>
</g>
<!-- 2118 -->
<g id="node6" class="node">
<title>2118</title>
<polygon fill="none" stroke="black" points="842.04,-213.6 748.51,-213.6 748.51,-177.6 842.04,-177.6 842.04,-213.6"/>
<text text-anchor="middle" x="795.27" y="-191.4" font-family="Times,serif" font-size="14.00">21173sh [0.0]</text>
</g>
<!-- 2114&#45;&gt;2118 -->
<g id="edge6" class="edge">
<title>2114&#45;&gt;2118</title>
<path fill="none" stroke="black" d="M795.27,-266.25C795.27,-254.12 795.27,-237.62 795.27,-223.72"/>
<polygon fill="black" stroke="black" points="798.77,-223.71 795.27,-213.71 791.77,-223.71 798.77,-223.71"/>
<text text-anchor="middle" x="872.27" y="-235.8" font-family="Times,serif" font-size="14.00">21230 0.506647588451347</text>
</g>
<!-- 508 -->
<g id="node5" class="node">
<title>508</title>
<polygon fill="none" stroke="black" points="808.76,-480 701.79,-480 701.79,-444 808.76,-444 808.76,-480"/>
<text text-anchor="middle" x="755.27" y="-457.8" font-family="Times,serif" font-size="14.00">20997bash [0.0]</text>
</g>
<!-- 508&#45;&gt;2053 -->
<g id="edge4" class="edge">
<title>508&#45;&gt;2053</title>
<path fill="none" stroke="black" d="M701.5,-452.74C673.04,-447.25 637.95,-438.68 608.27,-426 595.62,-420.6 594.96,-414.53 582.27,-409.2 553.5,-397.1 519.87,-388.86 491.31,-383.43"/>
<polygon fill="black" stroke="black" points="491.91,-379.98 481.44,-381.63 490.65,-386.87 491.91,-379.98"/>
<text text-anchor="middle" x="688.77" y="-413.4" font-family="Times,serif" font-size="14.00">21198 0.1011022823489827</text>
</g>
<!-- 508&#45;&gt;2104 -->
<g id="edge3" class="edge">
<title>508&#45;&gt;2104</title>
<path fill="none" stroke="black" d="M764.5,-443.68C767.4,-438.08 770.55,-431.82 773.27,-426 777.05,-417.95 780.92,-409.08 784.34,-400.98"/>
<polygon fill="black" stroke="black" points="787.63,-402.18 788.26,-391.61 781.17,-399.49 787.63,-402.18"/>
<text text-anchor="middle" x="864.27" y="-413.4" font-family="Times,serif" font-size="14.00">21153 0.20250634102091863</text>
</g>
<!-- 2121 -->
<g id="node7" class="node">
<title>2121</title>
<polygon fill="none" stroke="black" points="848.2,-124.8 742.35,-124.8 742.35,-88.8 848.2,-88.8 848.2,-124.8"/>
<text text-anchor="middle" x="795.27" y="-102.6" font-family="Times,serif" font-size="14.00">21174gzip [0.0]</text>
</g>
<!-- 2118&#45;&gt;2121 -->
<g id="edge5" class="edge">
<title>2118&#45;&gt;2121</title>
<path fill="none" stroke="black" d="M795.27,-177.45C795.27,-165.32 795.27,-148.82 795.27,-134.92"/>
<polygon fill="black" stroke="black" points="798.77,-134.91 795.27,-124.91 791.77,-134.91 798.77,-134.91"/>
<text text-anchor="middle" x="875.77" y="-147" font-family="Times,serif" font-size="14.00">21200 0.6187562522385359</text>
</g>
<!-- 2116 -->
<g id="node8" class="node">
<title>2116</title>
<ellipse fill="none" stroke="black" cx="795.27" cy="-18" rx="120.41" ry="18"/>
<text text-anchor="middle" x="795.27" y="-13.8" font-family="Times,serif" font-size="14.00">/tmp/stolen_data.tar.gz [0.0]</text>
</g>
<!-- 2121&#45;&gt;2116 -->
<g id="edge8" class="edge">
<title>2121&#45;&gt;2116</title>
<path fill="none" stroke="black" d="M795.27,-88.65C795.27,-76.52 795.27,-60.02 795.27,-46.12"/>
<polygon fill="black" stroke="black" points="798.77,-46.11 795.27,-36.11 791.77,-46.11 798.77,-46.11"/>
<text text-anchor="middle" x="882.77" y="-58.2" font-family="Times,serif" font-size="14.00">20833 0.022071222364488892</text>
</g>
</g>
</svg>
